# xmcd
#
# Track frame offsets:
#	150
#	19586
#	41922
#	55800
#	73901
#	98187
#	119990
#	139937
#	159308
#	174059
#	193440
#	225570
#	241263
#	250657
#	281653
#
# Disc length: 4063 seconds
#
# Revision: 1
# Processed by: cddbd v1.5.2PL0 Copyright (c) Steve Scherf et al.
# Submitted via: audiograbber 1.82.02
#
DISCID=d80fdd0f
DTITLE=Lubriphonic - Soul Solution
DYEAR=2008
DGENRE=Blues Jazz Funk
TTITLE0=Mixin' In The Kitchen
TTITLE1=Say Something Good
TTITLE2=Oh My Way
TTITLE3=Mexico City Blues
TTITLE4=Love Bomb
TTITLE5=Suffering Fools
TTITLE6=Depression Suite
TTITLE7=Soul Solution
TTITLE8=Chalk Train
TTITLE9=Rain Keep Falling
TTITLE10=Another Patch Of Ground
TTITLE11=Waiting For A Change
TTITLE12=Walls
TTITLE13=Mixin' In The kitchen (live)
TTITLE14=rain Keep Falling (live)
EXTD=
EXTT0=
EXTT1=
EXTT2=
EXTT3=
EXTT4=
EXTT5=
EXTT6=
EXTT7=
EXTT8=
EXTT9=
EXTT10=
EXTT11=
EXTT12=
EXTT13=
EXTT14=
PLAYORDER=
